<svg xmlns="http://www.w3.org/2000/svg" width="80" height="80" viewBox="0 0 60 60"><path d="M25.227 26.965a5.06 5.06 0 1 0-.004-10.121 5.06 5.06 0 0 0 .004 10.12zm0-8.246a3.185 3.185 0 0 1 0 6.37 3.185 3.185 0 0 1-3.188-3.183 3.193 3.193 0 0 1 3.188-3.187zm0 0M53.203 39.61h-4.101v-4.102a.935.935 0 0 0-.938-.938.935.935 0 0 0-.937.938v4.101h-3.985a.935.935 0 0 0-.937.938c0 .52.418.937.937.937h3.985v3.985c0 .52.418.937.937.937.52 0 .938-.418.938-.937v-3.985h4.101c.52 0 .938-.418.938-.937a.935.935 0 0 0-.938-.938zm0 0"/><path d="M55.313 32.008V14.266c0-3.102-2.555-5.594-5.657-5.594H6.418A5.583 5.583 0 0 0 .82 14.266V42.52c0 3.101 2.496 5.644 5.598 5.644h34.086a10.965 10.965 0 0 0 11.95 2.371 10.957 10.957 0 0 0 6.769-10.125c0-3.367-1.567-6.39-3.91-8.402zM6.417 10.547h43.238c2.07 0 3.782 1.648 3.782 3.719v16.472a10.902 10.902 0 0 0-5.172-1.289c-.407 0-.817.02-1.223.067l-7.855-5.563a.94.94 0 0 0-1.2.098L27.402 34.453l-12.3-5.996a.91.91 0 0 0-.868.031L2.695 35.191V14.266a3.708 3.708 0 0 1 1.086-2.637 3.72 3.72 0 0 1 2.637-1.082zM2.695 42.52v-5.165l12.047-6.992 11.246 5.496-10.61 10.43h-8.96a3.75 3.75 0 0 1-3.723-3.77zm15.36 3.77l20.683-20.34 5.848 4.136a10.978 10.978 0 0 0-7.29 10.332c0 2.156.626 4.113 1.704 5.871zm30.199 3.194a9.08 9.08 0 0 1-9.082-9.082 9.082 9.082 0 0 1 18.164 0c-.008 5.016-4.07 9.078-9.082 9.082zm0 0"/></svg>