<?xml version="1.0" encoding="iso-8859-1"?>
<!-- Generator: Adobe Illustrator 19.1.0, SVG Export Plug-In . SVG Version: 6.00 Build 0)  -->
<svg version="1.1" id="Capa_1" xmlns="http://www.w3.org/2000/svg" xmlns:xlink="http://www.w3.org/1999/xlink" x="0px" y="0px"
	 viewBox="0 0 484.2 484.2" style="enable-background:new 0 0 484.2 484.2;" xml:space="preserve">
<g>
	<g>
		<path d="M422.7,268.6c-4.9-1.2-9.6-0.8-13.8,0.6c-8.2-30.2-25.5-56.6-48.9-76.1c-3.6-15.9,2.1-30.4,8.7-41
			c4.8-7.7-1.6-17.8-10.7-16.6c-28.1,3.5-44.2,16.6-53.2,28.4c-11.9-3.4-24.4-5.3-37.3-5.6c5.3,14.2,8.3,29.5,8.3,45.6
			c0,71.4-58.1,129.5-129.6,129.5c-28.2,0-54.4-9.1-75.7-24.5c0.1,44.6,19.5,84.6,50.3,112.1c10.2,9.1,16.3,22,16.3,35.7v17.7
			c0,5.4,4.4,9.8,9.8,9.8H207c5.4,0,9.8-4.4,9.8-9.8v-15.3c1.4,0,2.7,0.1,4.1,0.1h42.6c0.3,0,0.6,0,0.8,0v15.2
			c0,5.4,4.4,9.8,9.8,9.8h60.1c5.4,0,9.8-4.4,9.8-9.8v-14.3c0-14.4,6.5-27.8,17.4-37.2c22.6-19.4,39.4-45.4,47.4-75.1
			c4.2,1.4,8.9,1.8,13.8,0.6c11.2-2.8,18.9-13.2,18.9-24.8v-30.1C441.6,281.9,434,271.3,422.7,268.6z M348.4,271.1
			c-8.2,0-14.9-6.7-14.9-14.9c0-8.2,6.7-14.9,14.9-14.9c8.2,0,14.9,6.7,14.9,14.9S356.6,271.1,348.4,271.1z"/>
		<path d="M259.9,138c25.7-11,43.7-36.5,43.7-66.1c0-39.7-32.2-71.9-71.9-71.9s-71.9,32.2-71.9,71.9c0,0.4,0.1,0.8,0.1,1.2
			C202.6,77.5,239.3,102.5,259.9,138z"/>
		<path d="M146.1,307.2c57.1,0,103.4-46.3,103.4-103.4s-46.3-103.4-103.4-103.4c-29.8,0-56.6,12.6-75.5,32.7
			c-17.3,18.5-27.9,43.3-27.9,70.6C42.8,261,89,307.2,146.1,307.2z M110,244.8c0.9-3.4,1.9-6.8,2.9-10.2c1.2-3.9,2.3-4.4,5.9-2.5
			c6.1,3.2,12.6,5,19.5,5.8c4.4,0.5,8.7,0.1,12.8-1.7c7.6-3.3,8.8-12.1,2.4-17.4c-2.2-1.8-4.7-3.1-7.3-4.3
			c-6.7-2.9-13.6-5.2-19.9-8.9c-10.2-6.1-16.7-14.5-15.9-26.9c0.9-14,8.8-22.8,21.7-27.5c5.3-1.9,5.3-1.9,5.4-7.4c0-1.9,0-3.8,0-5.6
			c0.1-4.2,0.8-4.9,5-5c1.3,0,2.6,0,3.9,0c8.9,0,8.9,0,8.9,8.9c0,6.3,0,6.3,6.3,7.3c4.8,0.7,9.4,2.2,13.8,4.1
			c2.4,1.1,3.4,2.8,2.6,5.4c-1.1,3.8-2.2,7.7-3.4,11.5c-1.2,3.6-2.3,4.1-5.8,2.4c-6.9-3.4-14.2-4.8-21.9-4.3c-2,0.1-4,0.4-5.8,1.2
			c-6.6,2.9-7.7,10.2-2.1,14.7c2.8,2.3,6.1,3.9,9.5,5.3c5.9,2.4,11.8,4.8,17.3,7.8c17.7,9.8,22.5,32.1,10,47.2
			c-4.5,5.5-10.4,9.2-17.2,11c-3,0.8-4.3,2.4-4.2,5.5c0.1,3,0,6.1,0,9.2c0,2.7-1.4,4.2-4.1,4.2c-3.3,0.1-6.6,0.1-9.9,0
			c-2.9-0.1-4.2-1.7-4.3-4.5c0-2.2,0-4.5-0.1-6.7c-0.1-4.9-0.2-5.1-4.9-5.9c-6.1-1-12-2.3-17.5-5C109.2,250.4,108.8,249.3,110,244.8
			z"/>
	</g>
</g>
<g>
</g>
<g>
</g>
<g>
</g>
<g>
</g>
<g>
</g>
<g>
</g>
<g>
</g>
<g>
</g>
<g>
</g>
<g>
</g>
<g>
</g>
<g>
</g>
<g>
</g>
<g>
</g>
<g>
</g>
</svg>
