<?xml version="1.0" encoding="iso-8859-1"?>
<!-- Generator: Adobe Illustrator 19.1.0, SVG Export Plug-In . SVG Version: 6.00 Build 0)  -->
<svg version="1.1" id="Capa_1" xmlns="http://www.w3.org/2000/svg" xmlns:xlink="http://www.w3.org/1999/xlink" x="0px" y="0px"
	 viewBox="0 0 490.1 490.1" style="enable-background:new 0 0 490.1 490.1;" xml:space="preserve">
<g>
	<g>
		<rect x="136.85" y="150.6" width="157" height="26.7"/>
		<rect x="136.85" y="196.5" width="157" height="26.7"/>
		<rect x="136.85" y="242.5" width="157" height="26.7"/>
		<rect x="136.85" y="288.5" width="78.4" height="26.7"/>
		<path d="M232.35,380.5h-115c-5.4,0-9.9-4.4-9.9-9.9V131.5c0-5.4,4.4-9.9,9.9-9.9h195.9c5.4,0,9.9,4.4,9.9,9.9v153.7
			c8.9-2.1,18.3-3.3,27.8-3.3c9.7,0,19,1.2,28,3.3V82.5c0-20.8-16.9-37.7-37.7-37.7h-65.1c-8.3-26-32.6-44.8-61.3-44.8
			s-53,18.8-61.3,44.8h-64.2c-20.8,0-37.7,16.9-37.7,37.7v319.9c0,20.8,16.9,37.7,37.7,37.7h146.9c-3.9-11.8-6-24.3-6-37.4
			C230.25,395.1,231.05,387.7,232.35,380.5z M214.85,42c12.4,0,22.5,10.1,22.5,22.5S227.25,87,214.85,87s-22.5-10.1-22.5-22.5
			C192.35,52,202.45,42,214.85,42z"/>
		<path d="M350.95,315.1c-48.3,0-87.5,39.2-87.5,87.5s39.2,87.5,87.5,87.5s87.5-39.2,87.5-87.5S399.25,315.1,350.95,315.1z
			 M376.15,437.2c-3.8,4.6-8.8,7.8-14.6,9.4c-2.5,0.7-3.7,2-3.5,4.6c0.1,2.6,0,5.2,0,7.8c0,2.3-1.2,3.5-3.5,3.6
			c-2.8,0.1-5.6,0.1-8.3,0c-2.4,0-3.6-1.4-3.6-3.8c0-1.9,0-3.8-0.1-5.7c0-4.2-0.2-4.3-4.2-5c-5.1-0.8-10.2-2-14.9-4.3
			c-3.7-1.8-4.1-2.7-3-6.6c0.8-2.9,1.6-5.8,2.5-8.6c1-3.3,1.9-3.7,5-2.1c5.2,2.7,10.7,4.2,16.5,4.9c3.7,0.5,7.4,0.1,10.8-1.4
			c6.4-2.8,7.4-10.3,2-14.7c-1.9-1.5-3.9-2.6-6.2-3.6c-5.6-2.5-11.5-4.4-16.9-7.6c-8.6-5.2-14.1-12.3-13.5-22.8
			c0.7-11.9,7.4-19.3,18.3-23.3c4.5-1.6,4.5-1.6,4.5-6.3c0-1.6,0-3.2,0-4.8c0.1-3.5,0.7-4.2,4.2-4.3c1.1,0,2.2,0,3.3,0
			c7.5,0,7.5,0,7.6,7.5c0,5.3,0,5.3,5.3,6.2c4.1,0.6,7.9,1.8,11.7,3.5c2.1,0.9,2.8,2.4,2.2,4.5c-0.9,3.2-1.8,6.5-2.9,9.7
			c-1,3-2,3.5-4.9,2.1c-5.9-2.8-12-4-18.5-3.7c-1.7,0.1-3.4,0.3-4.9,1c-5.6,2.5-6.5,8.6-1.7,12.4c2.4,1.9,5.2,3.3,8,4.5
			c5,2.1,10,4,14.7,6.6C382.65,405.5,386.65,424.3,376.15,437.2z"/>
	</g>
</g>
<g>
</g>
<g>
</g>
<g>
</g>
<g>
</g>
<g>
</g>
<g>
</g>
<g>
</g>
<g>
</g>
<g>
</g>
<g>
</g>
<g>
</g>
<g>
</g>
<g>
</g>
<g>
</g>
<g>
</g>
</svg>
