<?xml version="1.0" encoding="iso-8859-1"?>
<!-- Generator: Adobe Illustrator 19.1.0, SVG Export Plug-In . SVG Version: 6.00 Build 0)  -->
<svg version="1.1" id="Capa_1" xmlns="http://www.w3.org/2000/svg" xmlns:xlink="http://www.w3.org/1999/xlink" x="0px" y="0px"
	 viewBox="0 0 488.4 488.4" style="enable-background:new 0 0 488.4 488.4;" xml:space="preserve">
<g>
	<g>
		<path d="M477.3,299.65c-14.8-9.7-22.9-23.4-27.4-35.4c24.1-26.1,38.5-59.3,38.5-95.5c0-83.9-77.6-151.9-173.3-151.9
			c-85.3,0-156.1,54-170.5,125.2c8.3-1,16.7-1.5,25.2-1.5c107.1,0,194.7,76.8,199,172.6c14.4-4.1,27.9-9.8,40.4-16.9
			c24.4,14.6,50.8,14.1,66.2,12C479.8,307.75,481,302.05,477.3,299.65z"/>
		<path d="M169.8,170.05C76.2,170.05,0,237.65,0,320.75c0,31.6,11.3,62.5,31.9,88c-3.8,7-9,12.6-15.3,16.8
			c-6.7,4.4-9.9,12.3-8.2,20.1c1.7,7.7,8,13.5,15.9,14.6c5.4,0.8,11,1.1,16.5,1.1c16.3,0,31.4-3.3,44.8-9.7
			c25.6,13,54.6,19.9,84.2,19.9c93.6,0,169.8-67.6,169.8-150.7S263.4,170.05,169.8,170.05z M169.8,441.95c-27.4,0-54.1-6.9-77-19.9
			l-7.5-4.3l-7.4,4.4c-7.6,4.5-16.1,7.5-25.4,8.8c4.3-5.9,7.8-12.6,10.4-19.8l3.1-8.5l-6.1-6.6c-20-21.7-30.6-47.8-30.6-75.5
			c0-66.9,63-121.2,140.4-121.2s140.5,54.5,140.5,121.4S247.2,441.95,169.8,441.95z"/>
		<path d="M174.6,287.35c10.2,0.1,18.6-8.4,18.7-18.8c0.1-10.5-8.2-19-18.6-19.1c-10.4,0-18.9,8.3-19,18.8
			C155.7,278.65,164.1,287.25,174.6,287.35z"/>
		<path d="M197.1,372.65c-1.8,0.7-3.5,2-5.3,2.7c-2.3,0.9-4.6,1.7-7,2c-2.9,0.3-5-1.2-5.7-4c-0.5-2.1-0.8-4.4-0.6-6.5
			c0.5-4.5,1.4-8.9,2.2-13.4c2.4-13.4,5-26.8,7.3-40.3c0.6-3.6,1.3-7.3,1.2-11c-0.1-4.4-2.7-6.5-7.1-6.5c-6.1,0-12.2,0-18.3,0
			c-5.8,0-11.5,0-17.3,0c-1.4,0-2.9,0.1-4.3,0.3c-2.7,0.5-4,1.8-4.2,3.9c-0.2,1.9,0.8,3.8,3.3,4.7c2,0.7,4.1,0.9,6.2,1.2
			c4.8,0.7,6.4,2.4,6.4,7.3c0,0.8-0.1,1.5-0.2,2.3c-2,11.8-4.2,23.5-6.2,35.3c-1.1,6.8-2.2,13.5-3.1,20.3
			c-1.4,9.9,8.2,19.3,15.7,20.3c4.5,0.6,9.1,0.8,13.7,0.7c9.8-0.1,18-4.3,24.9-11.2c1.2-1.2,2.2-2.9,2.6-4.5
			C202.1,373.45,199.9,371.55,197.1,372.65z"/>
	</g>
</g>
<g>
</g>
<g>
</g>
<g>
</g>
<g>
</g>
<g>
</g>
<g>
</g>
<g>
</g>
<g>
</g>
<g>
</g>
<g>
</g>
<g>
</g>
<g>
</g>
<g>
</g>
<g>
</g>
<g>
</g>
</svg>
