<?xml version='1.0' encoding='utf-8'?>
<!DOCTYPE svg PUBLIC '-//W3C//DTD SVG 1.1//EN' 'http://www.w3.org/Graphics/SVG/1.1/DTD/svg11.dtd'>
<svg version="1.1" xmlns="http://www.w3.org/2000/svg" viewBox="0 0 512 512" xmlns:xlink="http://www.w3.org/1999/xlink" enable-background="new 0 0 512 512">
  <g>
    <g>
      <polygon points="299.8,192.4 285.3,177.8 269.7,193.5 284.2,208.1   "/>
      <polygon points="178.1,285.5 192.7,300.1 208.3,284.4 193.7,269.8   "/>
      <polygon points="209.3,254.1 223.9,268.7 239.5,253.1 224.9,238.4   "/>
      <polygon points="269.7,222.8 255.1,208.1 239.5,223.8 254.1,238.4   "/>
      <path d="m497.5,331.4l-254.9-256c-3.1-2.1-6.2-4.2-9.4-3.1l-75.7,12.1c-4.9-5.9-10.2-11.8-15.9-17.6-46.5-47-101.4-67.9-122.6-46.8-21.2,21.2-0.7,76.4 45.8,123.4 6.4,6.5 13,12.4 19.6,17.9l-11.4,71.9c0,4.2 1,7.3 3.1,9.4l254.9,256c2.1,2.1 4.2,3.1 7.3,3.1 3.1,0 5.2-1 7.3-3.1l151.9-152.6c4.2-4.1 4.2-10.4 0-14.6zm-409.3-194.2c-2.9-2.7-5.8-5.5-8.7-8.4-37.9-38.3-58.1-79.9-45-93 13.1-13.1 54.4,7.4 92.3,45.7 2.2,2.2 4.4,4.5 6.5,6.8l-31.2,5c-4.2,0-7.3,4.2-8.3,8.4l-5.6,35.5zm250.1,339.5l-243.4-244.5 8.9-56.5c13.8,9.1 27.3,15.7 39.6,19.3 2,4.8 4.9,9.2 8.7,13.1 7.3,7.3 17.7,11.5 28.1,11.5s20.8-4.2 28.1-11.5c15.6-15.7 15.6-40.8 0-56.4-15.6-14.6-41.6-14.6-56.2,0-6.2,6.2-9.9,13.9-11.2,21.9-10.1-4.2-21.6-11.2-33.6-20.3l6.3-40.2 118.6-18.8 243.4,244.5-137.3,137.9zm-171.7-299.2c-1.6,0.6-3.4,0.8-5.3,0.8 0.3-4.4 2.1-8.8 5.4-12 11-9.6 22.9-4.8 27,0 7.3,7.3 7.3,19.9 0,27.2-5.5,5.5-14,6.9-20.9,4 12.7-4.6 6.5-24.6-6.2-20z"/>
    </g>
  </g>
</svg>
