<svg xmlns="http://www.w3.org/2000/svg" width="80" height="80" viewBox="0 0 60 60"><defs><clipPath id="a"><path d="M0 13h59.996v4H0zm0 0"/></clipPath><clipPath id="b"><path d="M0 42h59.996v5H0zm0 0"/></clipPath></defs><g clip-path="url(#a)"><path d="M1.875 16.84h56.246a1.875 1.875 0 000-3.75H1.875a1.875 1.875 0 000 3.75zm0 0"/></g><g clip-path="url(#b)"><path d="M58.121 42.977H1.875a1.875 1.875 0 000 3.75h56.246a1.875 1.875 0 000-3.75zm0 0"/></g><path d="M44.629 28.016H2.125C.953 28.016 0 28.856 0 29.89c0 1.035.953 1.875 2.125 1.875h42.504c1.172 0 2.125-.844 2.125-1.875 0-1.036-.953-1.875-2.125-1.875zm0 0"/></svg>