<?xml version='1.0' encoding='utf-8'?>
<!DOCTYPE svg PUBLIC '-//W3C//DTD SVG 1.1//EN' 'http://www.w3.org/Graphics/SVG/1.1/DTD/svg11.dtd'>
<svg version="1.1" xmlns="http://www.w3.org/2000/svg" viewBox="0 0 512 512" xmlns:xlink="http://www.w3.org/1999/xlink" enable-background="new 0 0 512 512">
  <g>
    <g>
      <path d="m439.5,136.1h-64.6c-34.4,0-61.5,28.1-61.5,61.5v53.2c0,6.3 4.2,10.4 10.4,10.4h166.8c6.3,0 10.4-4.2 10.4-10.4v-53.2c5.68434e-14-34.4-28.1-61.5-61.5-61.5zm40.6,104.3h-146v-42.7c0-22.9 18.8-40.7 40.7-40.7h64.6c22.9,0 40.7,18.8 40.7,40.7v42.7z"/>
      <path d="m407.2,115.3c29.2,0 52.1-22.9 52.1-52.1 0-29.2-22.9-52.1-52.1-52.1s-52.2,22.8-52.2,52c0,29.2 23,52.2 52.2,52.2zm0-83.4c17.7,7.10543e-15 31.3,13.6 31.3,31.3s-13.6,31.3-31.3,31.3-31.3-13.6-31.3-31.3 13.5-31.3 31.3-31.3z"/>
      <path d="m137.1,375.9h-64.6c-34.4,0-61.5,28.1-61.5,61.5v53.2c0,6.3 4.2,10.4 10.4,10.4h166.8c6.3,0 10.4-4.2 10.4-10.4v-53.2c0.1-34.4-28.1-61.5-61.5-61.5zm40.7,104.2h-146v-42.7c0-22.9 18.8-40.7 40.7-40.7h64.6c22.9,0 40.7,18.8 40.7,40.7v42.7z"/>
      <path d="m104.8,355c29.2,0 52.1-22.9 52.1-52.1 0-29.2-22.9-52.1-52.1-52.1-29.2,0-52.1,22.9-52.1,52.1-7.10543e-15,29.2 22.9,52.1 52.1,52.1zm0-83.4c17.7,0 31.3,13.6 31.3,31.3s-13.6,31.3-31.3,31.3-31.3-13.6-31.3-31.3 13.6-31.3 31.3-31.3z"/>
      <path d="m240.4,153.8l32.3-64.6c2.1-5.2 0-11.5-5.2-13.6l-64.6-31.3-9.4,18.8 40.7,19.6c0,0-85.1,30.1-104.3,123.3l20.9,3.1c13.3-74.8 90.4-106 90.4-106l-19.5,41.3 18.7,9.4z"/>
      <path d="m269.3,407.9l20-42.5-18.8-9.4-31.3,64.6c-2.1,5.2 0,11.5 5.2,13.6l64.6,31.3 9.4-18.8-40.9-19.3c0,0 88.1-30.7 105.6-123.5l-20.9-3.1c-7.5,75.1-92.9,107.1-92.9,107.1z"/>
    </g>
  </g>
</svg>
